<svg id="visual" viewBox="0 0 900 600" width="900" height="600" xmlns="http://www.w3.org/2000/svg" xmlns:xlink="http://www.w3.org/1999/xlink" version="1.1"><rect x="0" y="0" width="900" height="600" fill="#F6F6F6"></rect><defs><linearGradient id="grad1_0" x1="33.3%" y1="0%" x2="100%" y2="100%"><stop offset="20%" stop-color="#f6f6f6" stop-opacity="1"></stop><stop offset="80%" stop-color="#f6f6f6" stop-opacity="1"></stop></linearGradient></defs><defs><linearGradient id="grad2_0" x1="0%" y1="0%" x2="66.7%" y2="100%"><stop offset="20%" stop-color="#f6f6f6" stop-opacity="1"></stop><stop offset="80%" stop-color="#f6f6f6" stop-opacity="1"></stop></linearGradient></defs><g transform="translate(900, 0)"><path d="M0 378.6C-44.3 342.8 -88.7 307 -112.1 270.7C-135.6 234.3 -138.1 197.4 -181.7 181.7C-225.4 166 -310.1 171.6 -349.8 144.9C-389.4 118.1 -384 59.1 -378.6 0L0 0Z" fill="#004A55"></path></g><g transform="translate(0, 600)"><path d="M0 -378.6C40.3 -344.2 80.5 -309.9 119.4 -288.3C158.3 -266.6 195.8 -257.7 237.6 -237.6C279.4 -217.5 325.5 -186.3 349.8 -144.9C374 -103.4 376.3 -51.7 378.6 0L0 0Z" fill="#004A55"></path></g></svg>