<svg id="visual" viewBox="0 0 900 600" width="900" height="600" xmlns="http://www.w3.org/2000/svg" xmlns:xlink="http://www.w3.org/1999/xlink" version="1.1"><rect x="0" y="0" width="900" height="600" fill="#F6F6F6"></rect><path d="M0 412L21.5 417.8C43 423.7 86 435.3 128.8 434.7C171.7 434 214.3 421 257.2 420.7C300 420.3 343 432.7 385.8 430.5C428.7 428.3 471.3 411.7 514.2 401.7C557 391.7 600 388.3 642.8 392.8C685.7 397.3 728.3 409.7 771.2 408.2C814 406.7 857 391.3 878.5 383.7L900 376L900 601L878.5 601C857 601 814 601 771.2 601C728.3 601 685.7 601 642.8 601C600 601 557 601 514.2 601C471.3 601 428.7 601 385.8 601C343 601 300 601 257.2 601C214.3 601 171.7 601 128.8 601C86 601 43 601 21.5 601L0 601Z" fill="#00cba9"></path><path d="M0 427L21.5 434.8C43 442.7 86 458.3 128.8 464C171.7 469.7 214.3 465.3 257.2 462.5C300 459.7 343 458.3 385.8 455.8C428.7 453.3 471.3 449.7 514.2 443.7C557 437.7 600 429.3 642.8 434.5C685.7 439.7 728.3 458.3 771.2 464.8C814 471.3 857 465.7 878.5 462.8L900 460L900 601L878.5 601C857 601 814 601 771.2 601C728.3 601 685.7 601 642.8 601C600 601 557 601 514.2 601C471.3 601 428.7 601 385.8 601C343 601 300 601 257.2 601C214.3 601 171.7 601 128.8 601C86 601 43 601 21.5 601L0 601Z" fill="#00a99d"></path><path d="M0 450L21.5 456.3C43 462.7 86 475.3 128.8 483.8C171.7 492.3 214.3 496.7 257.2 496.2C300 495.7 343 490.3 385.8 482.3C428.7 474.3 471.3 463.7 514.2 459.2C557 454.7 600 456.3 642.8 464.5C685.7 472.7 728.3 487.3 771.2 493.2C814 499 857 496 878.5 494.5L900 493L900 601L878.5 601C857 601 814 601 771.2 601C728.3 601 685.7 601 642.8 601C600 601 557 601 514.2 601C471.3 601 428.7 601 385.8 601C343 601 300 601 257.2 601C214.3 601 171.7 601 128.8 601C86 601 43 601 21.5 601L0 601Z" fill="#008889"></path><path d="M0 487L21.5 491C43 495 86 503 128.8 502.8C171.7 502.7 214.3 494.3 257.2 495.3C300 496.3 343 506.7 385.8 514.3C428.7 522 471.3 527 514.2 524.3C557 521.7 600 511.3 642.8 511C685.7 510.7 728.3 520.3 771.2 522.7C814 525 857 520 878.5 517.5L900 515L900 601L878.5 601C857 601 814 601 771.2 601C728.3 601 685.7 601 642.8 601C600 601 557 601 514.2 601C471.3 601 428.7 601 385.8 601C343 601 300 601 257.2 601C214.3 601 171.7 601 128.8 601C86 601 43 601 21.5 601L0 601Z" fill="#006870"></path><path d="M0 560L21.5 560.7C43 561.3 86 562.7 128.8 562.5C171.7 562.3 214.3 560.7 257.2 556.7C300 552.7 343 546.3 385.8 540.5C428.7 534.7 471.3 529.3 514.2 531.7C557 534 600 544 642.8 551.8C685.7 559.7 728.3 565.3 771.2 560.5C814 555.7 857 540.3 878.5 532.7L900 525L900 601L878.5 601C857 601 814 601 771.2 601C728.3 601 685.7 601 642.8 601C600 601 557 601 514.2 601C471.3 601 428.7 601 385.8 601C343 601 300 601 257.2 601C214.3 601 171.7 601 128.8 601C86 601 43 601 21.5 601L0 601Z" fill="#004a55"></path></svg>