<svg id="visual" viewBox="0 0 900 600" width="900" height="600" xmlns="http://www.w3.org/2000/svg" xmlns:xlink="http://www.w3.org/1999/xlink" version="1.1"><rect x="0" y="0" width="900" height="600" fill="#F6F6F6"></rect><path d="M0 337L21.5 345.3C43 353.7 86 370.3 128.8 369.3C171.7 368.3 214.3 349.7 257.2 349.2C300 348.7 343 366.3 385.8 363.5C428.7 360.7 471.3 337.3 514.2 323.3C557 309.3 600 304.7 642.8 310.8C685.7 317 728.3 334 771.2 331.8C814 329.7 857 308.3 878.5 297.7L900 287L900 601L878.5 601C857 601 814 601 771.2 601C728.3 601 685.7 601 642.8 601C600 601 557 601 514.2 601C471.3 601 428.7 601 385.8 601C343 601 300 601 257.2 601C214.3 601 171.7 601 128.8 601C86 601 43 601 21.5 601L0 601Z" fill="#00cba9"></path><path d="M0 358L21.5 369C43 380 86 402 128.8 410C171.7 418 214.3 412 257.2 408C300 404 343 402 385.8 398.5C428.7 395 471.3 390 514.2 381.7C557 373.3 600 361.7 642.8 368.8C685.7 376 728.3 402 771.2 411C814 420 857 412 878.5 408L900 404L900 601L878.5 601C857 601 814 601 771.2 601C728.3 601 685.7 601 642.8 601C600 601 557 601 514.2 601C471.3 601 428.7 601 385.8 601C343 601 300 601 257.2 601C214.3 601 171.7 601 128.8 601C86 601 43 601 21.5 601L0 601Z" fill="#00a99d"></path><path d="M0 391L21.5 399.8C43 408.7 86 426.3 128.8 438.2C171.7 450 214.3 456 257.2 455.2C300 454.3 343 446.7 385.8 435.3C428.7 424 471.3 409 514.2 402.8C557 396.7 600 399.3 642.8 410.8C685.7 422.3 728.3 442.7 771.2 450.8C814 459 857 455 878.5 453L900 451L900 601L878.5 601C857 601 814 601 771.2 601C728.3 601 685.7 601 642.8 601C600 601 557 601 514.2 601C471.3 601 428.7 601 385.8 601C343 601 300 601 257.2 601C214.3 601 171.7 601 128.8 601C86 601 43 601 21.5 601L0 601Z" fill="#008889"></path><path d="M0 442L21.5 447.7C43 453.3 86 464.7 128.8 464.3C171.7 464 214.3 452 257.2 453.3C300 454.7 343 469.3 385.8 480.2C428.7 491 471.3 498 514.2 494.3C557 490.7 600 476.3 642.8 475.8C685.7 475.3 728.3 488.7 771.2 491.8C814 495 857 488 878.5 484.5L900 481L900 601L878.5 601C857 601 814 601 771.2 601C728.3 601 685.7 601 642.8 601C600 601 557 601 514.2 601C471.3 601 428.7 601 385.8 601C343 601 300 601 257.2 601C214.3 601 171.7 601 128.8 601C86 601 43 601 21.5 601L0 601Z" fill="#006870"></path><path d="M0 544L21.5 545.2C43 546.3 86 548.7 128.8 548.5C171.7 548.3 214.3 545.7 257.2 540C300 534.3 343 525.7 385.8 517.5C428.7 509.3 471.3 501.7 514.2 505C557 508.3 600 522.7 642.8 533.7C685.7 544.7 728.3 552.3 771.2 545.3C814 538.3 857 516.7 878.5 505.8L900 495L900 601L878.5 601C857 601 814 601 771.2 601C728.3 601 685.7 601 642.8 601C600 601 557 601 514.2 601C471.3 601 428.7 601 385.8 601C343 601 300 601 257.2 601C214.3 601 171.7 601 128.8 601C86 601 43 601 21.5 601L0 601Z" fill="#004a55"></path></svg>