<svg id="visual" viewBox="0 0 900 600" width="900" height="600" xmlns="http://www.w3.org/2000/svg" xmlns:xlink="http://www.w3.org/1999/xlink" version="1.1"><rect x="0" y="0" width="900" height="600" fill="#F6F6F6"></rect><path d="M649 600L616 585.7C583 571.3 517 542.7 473.2 514.2C429.3 485.7 407.7 457.3 411.8 428.8C416 400.3 446 371.7 452.8 343C459.7 314.3 443.3 285.7 431 257C418.7 228.3 410.3 199.7 406.8 171.2C403.3 142.7 404.7 114.3 415.7 85.8C426.7 57.3 447.3 28.7 457.7 14.3L468 0L900 0L900 14.3C900 28.7 900 57.3 900 85.8C900 114.3 900 142.7 900 171.2C900 199.7 900 228.3 900 257C900 285.7 900 314.3 900 343C900 371.7 900 400.3 900 428.8C900 457.3 900 485.7 900 514.2C900 542.7 900 571.3 900 585.7L900 600Z" fill="#00cba9" stroke-linecap="round" stroke-linejoin="miter"></path></svg>