<svg id="visual" viewBox="0 0 900 200" width="900" height="200" xmlns="http://www.w3.org/2000/svg" xmlns:xlink="http://www.w3.org/1999/xlink" version="1.1"><rect x="0" y="0" width="900" height="200" fill="#F6F6F6"></rect><path d="M0 72L30 81.7C60 91.3 120 110.7 180 111.2C240 111.7 300 93.3 360 72.7C420 52 480 29 540 42C600 55 660 104 720 111.7C780 119.3 840 85.7 870 68.8L900 52L900 0L870 0C840 0 780 0 720 0C660 0 600 0 540 0C480 0 420 0 360 0C300 0 240 0 180 0C120 0 60 0 30 0L0 0Z" fill="#00cba9" stroke-linecap="round" stroke-linejoin="miter"></path></svg>